<?xml version="1.0" encoding="utf-8"?>
<!-- Generator: Adobe Illustrator 22.0.1, SVG Export Plug-In . SVG Version: 6.00 Build 0)  -->
<svg version="1.1" id="Calque_1" xmlns="http://www.w3.org/2000/svg" xmlns:xlink="http://www.w3.org/1999/xlink" x="0px" y="0px"
	 viewBox="0 0 432 432" style="enable-background:new 0 0 432 432;" xml:space="preserve">
<style type="text/css">
	.st0{fill:#957452;}
	.st1{fill:#88573C;}
	.st2{fill:#D6C49A;}
	.st3{fill:#E52627;}
	.st4{fill:#CDCCCC;}
	.st5{fill:#264395;}
	.st6{fill:#1E274A;}
	.st7{fill:#EC6625;}
	.st8{fill:#020203;}
	.st9{fill:#E52521;}
	.st10{fill:#808181;}
	.st11{fill:#FFE324;}
	.st12{fill:#3F4244;}
	.st13{fill:#009F4A;}
	.st14{fill:#343434;}
	.st15{fill:#78170E;}
	.st16{fill:#F0E9D5;}
	.st17{fill:#272531;}
	.st18{fill:#222B56;}
	.st19{fill:#9BD2CC;}
	.st20{fill:#83B143;}
	.st21{fill:#1B1B1B;}
	.st22{fill:#FFFFFF;}
	.st23{fill:#DDD6C3;}
	.st24{fill:#997F64;}
	.st25{fill:#77684B;}
	.st26{fill:#A89877;}
	.st27{fill:#B4B4B4;}
	.st28{fill:#DDCEBB;}
	.st29{fill:#9A2A1A;}
	.st30{fill:#5E1C0C;}
	.st31{fill:#F1CA43;}
	.st32{fill:#A57B46;}
	.st33{fill:#F18538;}
	.st34{fill:#F2AC64;}
	.st35{fill:#FAB42D;}
	.st36{fill:#46494E;}
	.st37{fill:#CF875E;}
	.st38{fill:#E7E6E6;}
	.st39{fill:#1A181D;}
	.st40{fill:#637644;}
	.st41{fill:#9F1E29;}
	.st42{fill:#F9B03D;}
	.st43{fill:#0D71B9;}
	.st44{fill:#E52629;}
	.st45{fill:#676767;}
	.st46{fill:#30358C;}
	.st47{fill:#9A9999;}
	.st48{fill:#3F4798;}
	.st49{fill:#2DABE3;}
	.st50{fill:#C1292E;}
	.st51{fill:#F2F2F2;}
	.st52{fill:#AA7C4C;}
	.st53{fill:#D6A573;}
	.st54{fill:#29ACE1;}
	.st55{fill:#88C05E;}
	.st56{fill:#F39323;}
	.st57{fill:#EB5B28;}
	.st58{fill:#B85965;}
	.st59{fill:#A67D52;}
	.st60{fill:#8C633A;}
	.st61{fill:#009245;}
	.st62{fill:#066938;}
	.st63{fill:#7D252D;}
	.st64{fill:#95D3E3;}
	.st65{fill:#603914;}
	.st66{fill:#EFC9AF;}
	.st67{fill:#D987B8;}
	.st68{fill:#8FC14D;}
	.st69{fill:#C69C6C;}
	.st70{fill:#2BADE1;}
	.st71{fill:#A4C958;}
	.st72{fill:#754D24;}
	.st73{fill:#35AE73;}
	.st74{fill:#E0B99E;}
	.st75{fill:#BDCCD4;}
	.st76{fill:#0C0D0D;}
	.st77{fill:#F4E152;}
	.st78{fill:#1E1911;}
	.st79{fill:#A1BD4F;}
	.st80{fill:#CBE6DC;}
	.st81{fill:#B5DCCE;}
	.st82{fill:#1F1D1B;}
	.st83{fill:#746458;}
	.st84{fill:#C7B29A;}
	.st85{fill:#998675;}
	.st86{fill:#428540;}
	.st87{fill:#E3E5E3;}
	.st88{fill:#161617;}
	.st89{fill:#1E1F1E;}
	.st90{fill:#474847;}
	.st91{fill:#191A19;}
	.st92{fill:#4B2C15;}
	.st93{fill:#92552A;}
	.st94{fill:#7EA847;}
	.st95{fill:#D59E2B;}
	.st96{fill:#807E79;}
	.st97{fill:#E5B744;}
	.st98{fill:#8EC045;}
	.st99{fill:#3B569A;}
	.st100{fill:#A1B7E0;}
	.st101{fill:#8FC9CC;}
	.st102{fill:#9ED1CA;}
	.st103{fill:#81AAA9;}
	.st104{fill:#E1783D;}
	.st105{fill:#64328A;}
	.st106{fill:#DEDEA5;}
	.st107{fill:#754997;}
	.st108{fill:#EE6F43;}
	.st109{fill:#A6CB67;}
	.st110{fill:#8FB7C0;}
	.st111{fill:#E2E1DF;}
	.st112{fill:#2C3E70;}
	.st113{fill:#D9BF96;}
	.st114{fill:#9C6941;}
	.st115{fill:#61605E;}
	.st116{fill:#9C9A99;}
	.st117{fill:#245F3D;}
	.st118{fill:#191713;}
	.st119{fill:#C39A62;}
	.st120{fill:#A17C4F;}
	.st121{fill:#F39200;}
	.st122{fill:#432918;}
	.st123{fill:#B17F4A;}
	.st124{fill:#FFCE1E;}
	.st125{fill:#BE1622;}
	.st126{fill:#3AAA35;}
	.st127{fill:#911825;}
	.st128{fill:#009FE3;}
	.st129{fill:#E94E1B;}
	.st130{fill:#FFCC03;}
	.st131{fill:#95C11F;}
	.st132{fill:#00A19A;}
	.st133{fill:#683C11;}
	.st134{fill:#878787;}
	.st135{fill:#634E42;}
	.st136{fill:#CBBBA0;}
	.st137{fill:#7B5B41;}
	.st138{fill:#493E36;}
	.st139{fill:#78A62C;}
	.st140{fill:#2C8535;}
	.st141{fill:#F9B233;}
	.st142{fill:none;}
	.st143{fill:#CA9E67;}
	.st144{fill:#E30613;}
	.st145{fill:#C6C6C6;}
	.st146{fill:#575756;}
	.st147{fill:#7B6A58;}
	.st148{fill:#A3C5D7;}
	.st149{fill:#332C25;}
	.st150{fill:#29235C;}
	.st151{fill:#E6332A;}
	.st152{fill:#738D93;}
	.st153{fill:#C87B31;}
	.st154{fill:#5BBCA7;}
	.st155{fill:#EF786F;}
	.st156{fill:#EE8D9E;}
	.st157{fill:#A74B56;}
	.st158{fill:#E72D7B;}
	.st159{fill:#E84138;}
	.st160{fill:#3B2315;}
	.st161{fill:#8EC044;}
	.st162{fill:#A1C74B;}
	.st163{fill:#231F20;}
	.st164{fill:#F6D9A7;}
	.st165{fill:#F4A5A6;}
	.st166{fill:#6E6F70;}
	.st167{fill:#F8AF41;}
	.st168{fill:#B79C19;}
	.st169{fill:#EFD101;}
	.st170{fill:#207A97;}
	.st171{fill:#20ACE3;}
	.st172{fill:#C51618;}
	.st173{fill:#C19446;}
	.st174{fill:#9E599F;}
	.st175{fill:#CD95C2;}
	.st176{fill:#F29A26;}
	.st177{fill:#FCCE8D;}
	.st178{fill:#F39B85;}
	.st179{fill:#E52628;}
	.st180{fill:#6BB52D;}
</style>
<g>
	<g>
		<path d="M305.8,131.4c-0.3,4.7-0.3-4.3,0.1,39.7c0,3.3,0,6.6,0,9.9c0,1.1,0.3,1.8,1.2,2.5c2,1.4,3.9,3,5.9,4.6
			c6.9,5.7,11,13.1,13.8,21.5c1.4,4.4,2.3,8.9,2.1,13.6c-1.9,43.5-63.6,49.6-77.3,9.4c-1.2-3.5-2.2-7.1-2.6-10.8
			c-0.4-4.4,0.4-8.7,1.7-12.9c3.7-11.9,11.9-19.3,23.4-23.3c0.6-0.2,1.1-0.4,1.7-0.5c1.6-0.4,2.3-1.4,2.5-3c0.3-3.2,0.7-6.5,1-9.7
			c0.5-5.3,2.5-34.3,1.3-38.7c-0.9-3.4-4.9-1.7-7.6-1.7c-5.1-0.1-8.2-8.8-1.8-13.5c8.2-6,30.8-5.6,40.8-3.1c1.5,0.4,2.9,1.1,4.2,1.9
			c3,1.8,3.8,5,2.2,8.2c-0.9,1.8-2.3,3-4.1,3.7c-2.4,1-4.9,2-7.6,2.2C306.4,131.1,306.2,131.2,305.8,131.4z M274.1,125.5
			c0.3,0.9,10.8,1.5,12.5,6.7c0.4,1.2,0.5,2.4,0.5,3.7c-0.1,4.8-0.2,9.6-0.4,14.3c-0.2,4.2-0.3,8.4-0.6,12.6c-0.3,5-0.8,10-1.2,15
			c-0.2,1.9-0.4,3.8-0.7,5.6c-0.5,3.4-2.2,5.8-5.6,6.9c-1.3,0.4-2.6,0.9-3.8,1.4c-16.5,5.8-22.2,22.9-18.6,34.9
			c12.8,42.7,66.9,28.9,66.6-4.9c0-3.3-0.7-6.6-1.7-9.7c-2.6-8.5-7.1-15.8-14.3-21.2c-1.4-1-2.7-2.1-4.1-3.1c-2-1.4-2.9-3.1-2.9-5.5
			c0-6.4-0.2-12.9-0.2-19.3c-0.1-10.2,0-20.3,0-30.5c0-10.4,9.1-4.6,13.7-10.1C314.3,117,270.6,115,274.1,125.5z"/>
		<path d="M120.3,143.1c-3.5-0.2-6.6-0.7-9.5-1.9c-0.2-0.1-0.4-0.2-0.7-0.3c-6.4-2.8-8-10.1-3.2-15.3c1.3-1.4,2.9-2.4,4.6-3.2
			c4.1-1.9,8.4-3.1,12.8-3.8c3.8-0.6,7.6-1,11.4-1.1c5.8-0.1,11.5,1.1,17,2.7c2.2,0.7,4,1.9,5.4,3.8c2.3,3,2.5,7,0.4,10.1
			c-1.7,2.6-4.1,4.4-6.9,5.7c-1.4,0.7-2.8,1.2-4.2,1.8c-1.8,0.6-2.6,1.9-2.9,3.7c-0.4,2.9-0.4,5.9-0.1,8.8
			c0.6,7.2,2.6,14.2,4.2,21.1c2,8.3,4.2,16.6,5.7,25c1.7,9.9,3.4,19.8,4,29.8c0.2,2.8-0.1,5.6-0.8,8.3c-5.9,21.6-71,26-60.9-10.2
			c2.4-8.5,4.8-16.9,7.4-25.3c4.1-13.5,8.6-26.9,12.1-40.5c1.2-4.7,2.4-9.5,3.5-14.3C120.1,146.6,120.2,144.9,120.3,143.1z
			 M151.7,237c0.4-1.5,0.6-3,0.6-4.5c0.1-6.6-0.9-13.1-1.9-19.6c-1.8-11.7-4.2-23.2-7.1-34.7c-1.9-7.3-3.9-14.6-4.6-22.2
			c-0.4-4.1-0.6-8.1,0.2-12.2c0.7-3.7,2.7-6.3,6.3-7.8c1.2-0.5,2.5-0.9,3.6-1.5c1.4-0.8,2.9-1.6,4.1-2.7c2-1.8,1.7-4-0.8-5.3
			c-0.4-0.2-0.7-0.4-1.1-0.5c-4-1.1-8.1-2-12.3-2.2c-6-0.4-11.9,0.3-17.7,1.9c-2.5,0.7-5,1.7-7.4,2.8c-1.4,0.6-2.4,1.7-2.7,3.3
			c-0.4,1.6,0,2.4,1.5,3.1c2.4,1.1,5,1.9,7.7,1.7c1.9-0.1,3.4,0.3,4.8,1.6c1.1,1,1.7,2,1.8,3.5c0.2,3.3-0.1,6.6-0.9,9.8
			c-1.6,6.3-3.1,12.6-4.9,18.8c-3.8,12.8-7.8,25.6-11.7,38.5c-2.3,7.5-4.8,14.8-6.4,22.5c-2.9,13.8,5.4,13.9,13,16.2
			C126.7,249.9,148.5,248.3,151.7,237z"/>
		<path d="M198.6,136.7c-9.4-1.4-17.2-4.9-11.9-12.7c6.2-9.2,40.3-11.1,48.7-3.3c3.5,3.3,3.3,7.7-0.7,10.4
			c-10.6,7.1-9.5-4.4-11.5,33.4c-1.6,29.9,1.3,54.7-2.6,78c-0.3,1.9-0.8,3.8-1.4,5.7c-1.7,5.6-5.6,8.5-11.1,9.8
			c-5,1.2-11.1-0.8-13.5-7.2c-1.1-2.8-1.7-5.8-1.9-8.8c-0.9-11.4-1.9-22.9-1.5-34.3c0.2-7.3,0.7-14.6,1.4-21.9
			c0.7-7.2,1.6-14.4,2.6-21.6c0.6-4.7,1.6-9.3,2.2-14c0.5-3.7,0.8-7.4,1.2-11.1C198.7,138.3,198.6,137.6,198.6,136.7z M191.5,128.3
			c0.8,3.6,11.4-0.8,12.9,5.3c0.7,2.9,0.6,5.8,0.3,8.6c-0.7,6-1.7,12-2.5,18.1c-0.9,6.3-1.9,12.5-2.6,18.8
			c-0.7,6.2-1.1,12.5-1.6,18.7c-0.5,6-0.8,12-0.5,18.1c0.2,3.8,0.4,7.7,0.6,11.5c0.3,5.2,0.6,10.4,1.2,15.5c0.2,2.1,0.9,4.2,1.6,6.3
			c0.5,1.5,1.6,2.4,3.2,2.8c2.8,0.7,7.7-0.9,8.9-4.3c0.7-2.1,1.4-4.3,1.8-6.5c1.2-8,1.8-16,1.8-24c0-10.9-0.1-21.9,0-32.8
			c0.1-6.6,0.3-13.2,0.6-19.8c0.5-9.6,1.1-18.9,2.3-28.4c0.9-7.9,12.1-7.1,12.4-10.5c0.1-1.3-1.7-2.2-2.5-2.7
			C223.9,120.1,191.3,119.6,191.5,128.3z"/>
	</g>
	<path class="st128" d="M218.3,98.5c4.1,9.1,17.3,5.8,20.1-5.6C243.9,70.8,208.2,76.1,218.3,98.5z"/>
	<g>
		<path class="st128" d="M124.5,101.9c0,6,4.8,10.5,10.4,10c8.2-0.8,13-12.3,6-18.9C136.8,89.1,124.4,92.3,124.5,101.9z"/>
		<path class="st128" d="M149.4,97.9c0,3.7,3,6.6,6.5,6.3c5.2-0.5,8.2-7.7,3.8-11.8C157.1,89.8,149.3,91.8,149.4,97.9z"/>
		<path class="st128" d="M198.7,101.7c0,3.5,2.7,6.3,6,6.3c3.4,0,6.3-2.7,6.3-5.9C211,94.9,198.7,94.1,198.7,101.7z"/>
		<path class="st128" d="M203.5,85c0,2.7,2.1,4.9,4.7,4.9c2.6,0,4.9-2.1,4.9-4.6C213,79.7,203.5,79.1,203.5,85z"/>
		<path class="st128" d="M276.8,87c0,4.9,3.8,9,8.5,9c4.8,0,8.9-3.9,8.9-8.4C294.1,77.4,276.9,76.2,276.8,87z"/>
		<path class="st128" d="M136,72.3c0,4.8,3.8,8.8,8.4,8.8c4.7,0,8.8-3.8,8.8-8.2C153.1,62.8,136,61.6,136,72.3z"/>
		<path class="st128" d="M288,108.8c2.4,4.6,10.1,4.3,10.3-3c0.2-1.7-0.7-3.2-2-4.4C291.8,97.1,285.2,103.5,288,108.8z"/>
		<path class="st128" d="M301.2,94.5c3,5.8,12.6,5.4,12.8-3.8c0.2-2.1-0.9-3.9-2.4-5.5C306,79.8,297.7,87.8,301.2,94.5z"/>
		<path class="st128" d="M137.4,131.6c-1-2.9-3.7-3.8-6-3.7c-0.6,0-1.3,0.5-1.6,0.9c-1.3,1.7-1.5,3.5-0.6,5.5c0.8,1.9,2.3,2.7,4,2.8
			C136.4,137.1,138.3,134.4,137.4,131.6z"/>
		<g>
			<path class="st128" d="M133.2,162c-2.8,0-4.7,1.5-4.7,3.7c0,2,2.3,4.2,4.5,4.2c2,0,3.9-2,4-4.2C137.1,163.5,135.6,162,133.2,162z
				"/>
			<path class="st128" d="M135,154.8c0-2.1-1.7-3.9-3.8-3.9c-2.7,0-4.1,1.4-4.1,4.2c0,2.3,1.8,4.3,3.8,4.3
				C133.1,159.4,135,157.2,135,154.8z"/>
		</g>
		<g>
			<path class="st128" d="M213.3,137.1c-2.8,0-4.7,1.5-4.7,3.7c0,2,2.3,4.2,4.5,4.2c2,0,3.9-2,4-4.2
				C217.2,138.6,215.7,137.1,213.3,137.1z"/>
			<path class="st128" d="M215.1,129.9c0-2.1-1.7-3.9-3.8-3.9c-2.7,0-4.1,1.4-4.1,4.2c0,2.3,1.8,4.3,3.8,4.3
				C213.2,134.5,215.1,132.3,215.1,129.9z"/>
		</g>
		<path class="st128" d="M294.5,132c-2.4,0-4.1,1.3-4.1,3.3c0,1.8,2,3.7,3.9,3.7c1.8,0,3.4-1.7,3.5-3.7
			C297.9,133.3,296.5,132,294.5,132z"/>
		<path class="st128" d="M293.5,166.1c-3.2,0-5.3,1.7-5.4,4.3c0,2.3,2.6,4.8,5.1,4.8c2.3,0,4.5-2.3,4.5-4.8
			C297.9,167.8,296.2,166.1,293.5,166.1z"/>
		<path class="st128" d="M294.7,123.7c0-1.9-1.5-3.4-3.3-3.4c-2.4,0-3.6,1.3-3.6,3.7c0,2,1.6,3.8,3.4,3.8
			C293.1,127.7,294.8,125.7,294.7,123.7z"/>
	</g>
	<g>
		<path class="st129" d="M298.3,192.8c-16.8,0.2-17.2,0.4-18.2,0.4c-21.9,0-29.7,50.2,5.8,56.1C331.1,256.7,319.3,192.6,298.3,192.8
			z"/>
		<path class="st129" d="M138.5,183.8c-0.7-2.7-1.5-5.4-2.4-8c-2-5.5-9.9-1.6-10.4-0.1c-4.6,14.3-5,17.2-9,29.6
			c-2.1,6.6-4.6,13-6.8,19.6c-6.1,17.8,5.5,17,21.6,17.1C142,242.1,154.1,244,138.5,183.8z"/>
		<path class="st129" d="M212.7,204.4c0-3.6,0-6.6,0-10.2c-0.5-27.9-0.1-25.9-8-25.9c-3.3,0-8.8,67.5-0.4,75.9
			c9.3,9.2,8-24.1,8.4-37.2C212.6,207,212.7,204.4,212.7,204.4z"/>
	</g>
	<g>
		<path class="st129" d="M207.6,283.1c2.1-0.3,4.1-0.7,5.9-1.4c0.2-0.1,0.4-0.2,0.5-0.3c0.4-0.9,1.1-1.6,1.1-2.7
			c0-1.3,0.2-2.5,0.4-3.8c0-0.4,0.1-0.9,0.2-1.3c0.3-1.5,1.6-2.5,3.1-2.3c1.5,0.1,2.6,1.4,2.6,3c0,0.7-0.1,1.3-0.2,2
			c-0.6,4.3-0.6,8.6-0.7,12.9c0,1.6,0.1,3.1,0.2,4.7c0.1,1.3,0.6,2.5,1.2,3.6c1.4,2.3,2.9,2.6,5.3,1.1c1.2-0.8,2.1-1.9,2.8-3.2
			c1.5-2.5,2.4-5.3,3.2-8.1c0.7-2.8,1-5.7,1-8.6c0-1.3,0-2.7,0-4c0-1.3,0.4-2.4,1.7-3c1.2-0.6,2.4-0.4,3.4,0.4
			c0.5,0.4,1.1,0.8,1.6,1.2c1.5,1.2,3.1,2.1,5,2.7c0.2-0.4,0.5-0.8,0.7-1.2c1.3-2.2,2.9-4.2,4.9-5.9c1.5-1.2,3.2-2.1,5.1-2.5
			c3.2-0.5,6.9,1.2,8.5,4.1c1.1,2.1,1,4.1-0.3,6c-1,1.5-2.3,2.7-3.7,3.7c-2.9,1.9-6.2,2.7-9.6,2.6c-0.7,0-1.5-0.1-2.3-0.2
			c-0.3,0.8-0.5,1.6-0.7,2.4c-0.7,2.7-1.4,5.3-1.2,8.1c0,0.7,0.1,1.5,0.3,2.2c0.5,3.3,2.4,5,5.9,5.4c4.6,0.5,8.8-0.9,12.5-3.5
			c1.1-0.8,2.1-1.6,3.1-2.5c1-0.9,1.7-1.9,2.3-3.1c0.5-1.2,1.5-1.9,2.9-1.9c1.6,0.1,2.8,1.3,2.7,3c-0.1,1.1-0.6,2-1.1,2.9
			c-1,1.6-2.3,2.9-3.7,4.1c-4.1,3.6-8.8,5.9-14.2,6.7c-2.8,0.4-5.6,0.4-8.3-0.6c-4.9-1.7-7.3-5.3-8-10.3c-0.5-3.7,0-7.3,0.9-10.8
			c0.3-1.1,0.6-2.3,1-3.5c-1.1-0.5-2.3-1-3.5-1.6c-0.1,1.6-0.2,3.1-0.3,4.5c-0.6,4.6-2,9-4.1,13.1c-1.3,2.5-3,4.7-5.5,6.2
			c-1.8,1.2-3.8,1.8-5.9,1.6c-2.6-0.1-4.7-1.5-6.3-3.5c-1.9-2.5-2.9-5.3-3.1-8.4c-0.1-1.7-0.1-3.4-0.1-5.1c0-0.3,0-0.5,0-0.9
			c-2.6,0.5-5.1,1-7.7,1.5c-0.1,0.4-0.3,0.9-0.5,1.5c-1.8,5.3-4.8,9.7-9.4,13c-2.3,1.7-4.9,2.7-7.8,2.7c-3.5,0.1-6.4-1.4-8.8-3.9
			c-0.2-0.2-0.5-0.5-0.9-1c-0.1,0.2-0.2,0.5-0.4,0.7c-1.4,1.2-2.7,2.5-4.2,3.5c-2.9,2.1-6.2,2.7-9.7,2.6c-1.4,0-2.8-0.5-4.1-1
			c-4.3-1.9-7.4-4.9-9.3-9.2c-0.6-1.3-1.1-2.7-1.6-4.1c-0.4,0.1-0.7,0.3-1.1,0.4c-2.3,1-4.6,1.8-7.1,2.1c-1.5,0.2-2.9,0.1-4.2-0.7
			c-1.1-0.6-1.6-1.6-1.5-2.9c0.2-1.2,0.9-2,2-2.3c0.5-0.1,1.2,0,1.7,0c0.6,0,1.2,0.1,1.7,0.1c1.9-0.2,5.4-1.6,7.2-2.7
			c0-1.3-0.1-2.5-0.1-3.8c0.2-8.3,2.5-16,6.7-23.2c1.5-2.6,3.4-4.8,5.7-6.7c1.4-1.1,2.9-1.9,4.6-2.3c3-0.7,5.3,0.3,7.2,2.5
			c1.6,1.9,2.2,4.1,2.3,6.6c0.2,3.8-0.8,7.3-2.4,10.7c-3.4,7.2-8.4,13-14.9,17.4c-0.9,0.6-1.8,1.2-2.7,1.8c0.4,1.9,1,3.8,1.9,5.5
			c0.9,1.7,2.1,3,3.6,4.2c2.5,1.9,5.2,2.5,8.2,1.5c2.7-0.9,4.8-2.6,6.4-4.9c0.3-0.5,0.3-1.1,0.5-1.7c0-0.1,0-0.3,0-0.5
			c0.8-2.4,0.4-5,1-7.4c1.1-4.9,2.9-9.4,6.1-13.2c0.5-0.6,1-1.1,1.6-1.5c0.9-0.6,1.6-1.3,2.2-2.2c2.3-3.2,6-4.3,9.6-2.8
			c6.3,2.7,10.2,7.4,10.9,14.5C207.6,282.5,207.6,282.7,207.6,283.1z M186.3,279.9c-0.2,0.2-0.3,0.4-0.4,0.6
			c-2.1,3.7-3.4,7.6-3.5,11.8c0,1.2,0.2,2.4,0.6,3.6c0.9,2.2,3.3,4.8,6.6,4.6c1.3-0.1,2.5-0.5,3.5-1.2c3.8-2.4,6.2-6,7.7-10.1
			c0-0.1,0-0.2,0-0.3C194.9,287.7,190,284.8,186.3,279.9z M154.7,284.4c0.4-0.2,0.6-0.3,0.7-0.4c5.3-3.7,9.4-8.5,12.3-14.3
			c1.2-2.4,2-4.9,2-7.6c0-1.3-0.1-2.5-0.7-3.6c-0.6-1-1.2-1.3-2.2-0.8c-1,0.5-2,1.2-2.9,2c-1.7,1.5-3,3.5-4,5.5
			c-2.6,4.8-4.2,9.9-4.9,15.3C154.8,281.7,154.8,282.9,154.7,284.4z M201.8,283.1c-0.3-4.9-2.9-7.8-6.9-9.8
			c-0.2-0.1-0.4-0.1-0.6-0.2c-1-0.2-1.8-0.1-2.4,0.8c-0.7,0.8-0.9,1.7-0.5,2.7c0.2,0.5,0.5,1,0.9,1.4
			C194.8,280.6,197.9,282.5,201.8,283.1z M260,273.6c-1-1.3-1.9-1.6-3.3-0.9c-2.1,0.9-3.4,2.7-4.6,4.6
			C254.8,277.7,258.5,276,260,273.6z"/>
		<g>
			<path d="M102.8,328.2l3,0.1c-0.5-3.8-2.1-6.4-4.9-7.5c-3.5-1.5-8.4-0.4-11.4,2.6c-1.6,1.6-3.3,4.3-1.8,8.1c1.4,3.5,5,5.8,8.9,8.3
				c3.3,2.1,6.8,4.3,8.9,7.5c4.1,6.1,1.7,10.7,0.5,12.4c-2.2,3.1-6,4.8-10,4.8c-1.2,0-2.4-0.2-3.6-0.5c-2.6-0.7-8.2-3.2-10.2-11.6
				l-3,0.4l-0.8-5.3l11.1-1.6l0.8,5.3l-2.8,0.4c1.3,5,4.4,6.6,6.2,7.1c2.9,0.8,6.2-0.2,7.7-2.3c1.6-2.2,0.5-4.6-0.6-6.3
				c-1.5-2.3-4.4-4.1-7.4-6c-4.2-2.6-8.9-5.6-11-10.8c-2-5-0.9-10.1,3-13.9c4.5-4.4,11.8-6,17.3-3.7c2.9,1.2,7.5,4.4,8.2,12.7
				l2.8,0.1l-0.2,5.4l-11.2-0.4L102.8,328.2z"/>
			<path d="M145,345.6l0.2,5.4l-2.8,0.1c-0.2,1.5-0.6,3.4-1.3,5.4c-1.2,3.4-4.2,9.1-10.6,9.1c-3.6,0-8.4-1.6-10.6-9.2
				c-1.4-4.7-1.6-10.5-1.6-16.2c0-16.1,4.5-25.4,12.3-25.4c6.3,0,9.6,5.8,11.1,9.7l2.8-1.1l1.9,5l-10.5,4l-1.9-5l2.7-1
				c-1-2.6-2.9-6.2-6-6.2c-4.8,0-6.9,10.1-6.9,20c0,14.2,2,20,6.8,20c4,0,5.7-5.3,6.4-8.9l-3,0.1l-0.2-5.4L145,345.6z"/>
			<path d="M162,366.8l-11.2,0.4l-0.2-5.4l3.5-0.1V330l-3.4,0l0-5.4l11.3-0.1l0,5.4l-2.5,0v31.5l2.4-0.1L162,366.8z M152.8,319.7
				c0-2.2,1.8-4,4-4c2.2,0,4,1.8,4,4s-1.8,4-4,4C154.6,323.7,152.8,321.9,152.8,319.7z"/>
			<path d="M199,351.2l-1.2,5.2l-2.4-0.5c-1.9,5.8-6,9.4-11.1,9.4c-0.1,0-0.2,0-0.4,0c-4.2-0.1-8.3-2.7-11.4-7.1
				c-3.3-4.7-5.4-11.3-6.1-19c-0.6-7,0.4-12.9,2.8-17.2c2.3-4.1,5.9-6.6,10.1-7c7.7-0.8,16.8,5.9,18.3,19.8l0.3,2.6l-25.8,3.8
				c1.7,12.1,7.2,18.6,12.1,18.7c2.7,0.1,4.8-1.9,6-5.2l-3.3-0.8l1.2-5.2L199,351.2z M171.7,335.8l20.2-3
				c-1.4-6.7-5.6-12.6-11.2-12.6c-0.3,0-0.5,0-0.8,0c-2.4,0.2-4.5,1.7-6,4.3C172.3,327.3,171.6,331.2,171.7,335.8z"/>
			<path d="M244.4,366.5l-11.3,0.1l0-5.4l2.6,0c-0.1-10.5-1.5-31.5-8.1-37.8c-1.3-1.2-2.6-1.8-4.1-1.7c-2.9,0.2-8.2,3.1-10.4,20.6
				c-0.5,3.6-0.7,7.2-0.8,10.4v8.8l3.3,0l0,5.4l-11.3,0.1l0-5.4l2.5,0c0-2.2-0.1-5.4,0.1-9.1v-34l-3.6,0l0-5.4l11.3-0.1l0,5.4
				l-2.3,0v6.3c2.7-5.3,6.4-8.2,11-8.4c3.1-0.2,5.8,0.9,8.2,3.2c4.5,4.3,7.5,13.2,8.9,26.5c0.7,6.2,0.8,11.9,0.9,15.2l3.3,0
				L244.4,366.5z"/>
			<path d="M275.3,345.6l0.2,5.4l-2.8,0.1c-0.2,1.5-0.6,3.4-1.3,5.4c-1.2,3.4-4.2,9.1-10.6,9.1c-3.6,0-8.4-1.6-10.6-9.2
				c-1.4-4.7-1.6-10.5-1.6-16.2c0-16.1,4.5-25.4,12.3-25.4c6.3,0,9.6,5.8,11.1,9.7l2.8-1.1l1.9,5l-10.5,4l-1.9-5l2.7-1
				c-1-2.6-2.9-6.2-6-6.2c-4.8,0-6.9,10.1-6.9,20c0,14.2,2,20,6.8,20c4,0,5.7-5.3,6.4-8.9l-3,0.1l-0.2-5.4L275.3,345.6z"/>
			<path d="M313.7,351.2l-1.2,5.2l-2.4-0.5c-1.9,5.8-6,9.4-11.1,9.4c-0.1,0-0.2,0-0.4,0c-4.2-0.1-8.3-2.7-11.4-7.1
				c-3.3-4.7-5.4-11.3-6.1-19c-0.6-7,0.4-12.9,2.8-17.2c2.3-4.1,5.9-6.6,10.1-7c7.7-0.8,16.8,5.9,18.3,19.8l0.3,2.6l-25.8,3.8
				c1.7,12.1,7.2,18.6,12.1,18.7c2.7,0.1,4.8-1.9,6-5.2l-3.3-0.8l1.2-5.2L313.7,351.2z M286.3,335.8l20.2-3
				c-1.4-6.7-5.6-12.6-11.2-12.6c-0.3,0-0.5,0-0.8,0c-2.4,0.2-4.5,1.7-6,4.3C287,327.3,286.2,331.2,286.3,335.8z"/>
			<path d="M342,328.2l3,0.1c-0.5-3.8-2.1-6.4-4.9-7.5c-3.5-1.5-8.4-0.4-11.4,2.6c-1.6,1.6-3.3,4.3-1.8,8.1c1.4,3.5,5,5.8,8.9,8.3
				c3.3,2.1,6.8,4.3,8.9,7.5c4.1,6.1,1.7,10.7,0.5,12.4c-2.2,3.1-6,4.8-10,4.8c-1.2,0-2.4-0.2-3.6-0.5c-2.6-0.7-8.2-3.2-10.2-11.6
				l-3,0.4l-0.8-5.3l11.1-1.6l0.8,5.3l-2.8,0.4c1.3,5,4.4,6.6,6.2,7.1c2.9,0.8,6.2-0.2,7.7-2.3c1.6-2.2,0.5-4.6-0.6-6.3
				c-1.5-2.3-4.4-4.1-7.4-6c-4.2-2.6-8.9-5.6-11-10.8c-2-5-0.9-10.1,3-13.9c4.5-4.4,11.8-6,17.3-3.7c2.9,1.2,7.5,4.4,8.2,12.7
				l2.8,0.1l-0.2,5.4l-11.2-0.4L342,328.2z"/>
		</g>
	</g>
</g>
</svg>
